# xmcd
#
# Track frame offsets:
#	150
#	17448
#	36636
#	57194
#	78968
#	93645
#	107700
#	123863
#	140024
#	157373
#	172970
#	188720
#	201594
#
# Disc length: 2971 seconds
#
# Revision: 0
# Processed by: cddbd v1.5.2PL0 Copyright (c) Steve Scherf et al.
# Submitted via: EasyCDDAExtractor 16.0.1.1
#
DISCID=b60b990d
DTITLE=Debbie Davies - Love The Game
DYEAR=2001
DGENRE=Blues
TTITLE0=Love The Game
TTITLE1=Can't Live Like This No More
TTITLE2=Fired Up
TTITLE3=Down In The Trenches
TTITLE4=Worst Kinda Man
TTITLE5=Can't Find The Blues
TTITLE6=Was Ya Blue
TTITLE7=I'm Just Your Fool
TTITLE8=Leading Me Home
TTITLE9=Funky Little Teapot
TTITLE10=She's Takin' Notes
TTITLE11=Keep Your Sins To Yourself
TTITLE12=Grow Up  Grow Old
EXTD=
EXTT0=
EXTT1=
EXTT2=
EXTT3=
EXTT4=
EXTT5=
EXTT6=
EXTT7=
EXTT8=
EXTT9=
EXTT10=
EXTT11=
EXTT12=
PLAYORDER=
